<mxfile host="app.diagrams.net" modified="2023-12-23T21:21:05.643Z" agent="Mozilla/5.0 (Windows NT 10.0; Win64; x64) AppleWebKit/537.36 (KHTML, like Gecko) Chrome/120.0.0.0 Safari/537.36" etag="OQNKXooFs00zjDnWeV7q" version="22.1.11" type="device">
  <diagram name="Sayfa -1" id="OWNPSbNczxubT2wxFu2F">
    <mxGraphModel dx="820" dy="798" grid="1" gridSize="10" guides="1" tooltips="1" connect="1" arrows="1" fold="1" page="1" pageScale="1" pageWidth="827" pageHeight="1169" math="0" shadow="0">
      <root>
        <mxCell id="0" />
        <mxCell id="1" parent="0" />
        <mxCell id="J5H8AQLZrygVw5k9hg2B-10" style="edgeStyle=orthogonalEdgeStyle;rounded=0;orthogonalLoop=1;jettySize=auto;html=1;exitX=0.5;exitY=1;exitDx=0;exitDy=0;entryX=0.5;entryY=0;entryDx=0;entryDy=0;" edge="1" parent="1" source="J5H8AQLZrygVw5k9hg2B-1" target="J5H8AQLZrygVw5k9hg2B-2">
          <mxGeometry relative="1" as="geometry" />
        </mxCell>
        <mxCell id="J5H8AQLZrygVw5k9hg2B-1" value="Başla" style="ellipse;whiteSpace=wrap;html=1;" vertex="1" parent="1">
          <mxGeometry x="354" y="10" width="120" height="50" as="geometry" />
        </mxCell>
        <mxCell id="J5H8AQLZrygVw5k9hg2B-11" style="edgeStyle=orthogonalEdgeStyle;rounded=0;orthogonalLoop=1;jettySize=auto;html=1;exitX=0.5;exitY=1;exitDx=0;exitDy=0;entryX=0.5;entryY=0;entryDx=0;entryDy=0;" edge="1" parent="1" source="J5H8AQLZrygVw5k9hg2B-2" target="J5H8AQLZrygVw5k9hg2B-3">
          <mxGeometry relative="1" as="geometry" />
        </mxCell>
        <mxCell id="J5H8AQLZrygVw5k9hg2B-2" value="let A&lt;br&gt;let B" style="shape=parallelogram;perimeter=parallelogramPerimeter;whiteSpace=wrap;html=1;fixedSize=1;" vertex="1" parent="1">
          <mxGeometry x="360" y="100" width="120" height="60" as="geometry" />
        </mxCell>
        <mxCell id="J5H8AQLZrygVw5k9hg2B-12" style="edgeStyle=orthogonalEdgeStyle;rounded=0;orthogonalLoop=1;jettySize=auto;html=1;exitX=0.5;exitY=1;exitDx=0;exitDy=0;entryX=0.5;entryY=0;entryDx=0;entryDy=0;" edge="1" parent="1" source="J5H8AQLZrygVw5k9hg2B-3" target="J5H8AQLZrygVw5k9hg2B-4">
          <mxGeometry relative="1" as="geometry" />
        </mxCell>
        <mxCell id="J5H8AQLZrygVw5k9hg2B-3" value="let toplam = 0" style="rounded=0;whiteSpace=wrap;html=1;" vertex="1" parent="1">
          <mxGeometry x="354" y="170" width="120" height="60" as="geometry" />
        </mxCell>
        <mxCell id="J5H8AQLZrygVw5k9hg2B-13" style="edgeStyle=orthogonalEdgeStyle;rounded=0;orthogonalLoop=1;jettySize=auto;html=1;exitX=0.5;exitY=1;exitDx=0;exitDy=0;entryX=0.5;entryY=0;entryDx=0;entryDy=0;" edge="1" parent="1" source="J5H8AQLZrygVw5k9hg2B-4" target="J5H8AQLZrygVw5k9hg2B-5">
          <mxGeometry relative="1" as="geometry" />
        </mxCell>
        <mxCell id="J5H8AQLZrygVw5k9hg2B-14" style="edgeStyle=orthogonalEdgeStyle;rounded=0;orthogonalLoop=1;jettySize=auto;html=1;exitX=0;exitY=0.5;exitDx=0;exitDy=0;entryX=1;entryY=0.5;entryDx=0;entryDy=0;" edge="1" parent="1" source="J5H8AQLZrygVw5k9hg2B-4" target="J5H8AQLZrygVw5k9hg2B-6">
          <mxGeometry relative="1" as="geometry" />
        </mxCell>
        <mxCell id="J5H8AQLZrygVw5k9hg2B-4" value="i = 0; i &amp;lt; B; i++" style="shape=hexagon;perimeter=hexagonPerimeter2;whiteSpace=wrap;html=1;fixedSize=1;" vertex="1" parent="1">
          <mxGeometry x="354" y="260" width="120" height="80" as="geometry" />
        </mxCell>
        <mxCell id="J5H8AQLZrygVw5k9hg2B-9" style="edgeStyle=orthogonalEdgeStyle;rounded=0;orthogonalLoop=1;jettySize=auto;html=1;exitX=1;exitY=0.5;exitDx=0;exitDy=0;entryX=1;entryY=0.5;entryDx=0;entryDy=0;" edge="1" parent="1" source="J5H8AQLZrygVw5k9hg2B-5" target="J5H8AQLZrygVw5k9hg2B-4">
          <mxGeometry relative="1" as="geometry" />
        </mxCell>
        <mxCell id="J5H8AQLZrygVw5k9hg2B-5" value="toplam +=A" style="rounded=0;whiteSpace=wrap;html=1;" vertex="1" parent="1">
          <mxGeometry x="354" y="370" width="120" height="60" as="geometry" />
        </mxCell>
        <mxCell id="J5H8AQLZrygVw5k9hg2B-15" style="edgeStyle=orthogonalEdgeStyle;rounded=0;orthogonalLoop=1;jettySize=auto;html=1;entryX=0.5;entryY=0;entryDx=0;entryDy=0;" edge="1" parent="1" source="J5H8AQLZrygVw5k9hg2B-6" target="J5H8AQLZrygVw5k9hg2B-8">
          <mxGeometry relative="1" as="geometry" />
        </mxCell>
        <mxCell id="J5H8AQLZrygVw5k9hg2B-6" value="toplam" style="shape=document;whiteSpace=wrap;html=1;boundedLbl=1;" vertex="1" parent="1">
          <mxGeometry x="160" y="260" width="120" height="80" as="geometry" />
        </mxCell>
        <mxCell id="J5H8AQLZrygVw5k9hg2B-8" value="Bitiş" style="ellipse;whiteSpace=wrap;html=1;" vertex="1" parent="1">
          <mxGeometry x="160" y="370" width="120" height="50" as="geometry" />
        </mxCell>
      </root>
    </mxGraphModel>
  </diagram>
</mxfile>
